# xmcd
#
# Track frame offsets: 
#        150
#        13296
#        24944
#        34822
#        47452
#        59412
#        70939
#        83846
#        96298
#        109108
#        122001
#        134380
#        149135
#        163382
#        177972
#        192095
#        206152
#        220787
#        234886
#        248733
#        262419
#        276158
#        289197
#        304275
#        317001
#
# Disc length: 4386 seconds
#
# Revision: 4
# Processed by: cddbd v1.5.2PL0 Copyright (c) Steve Scherf et al.
# Submitted via: ExactAudioCopy v1.0b3
#
DISCID=80112019
DTITLE=Furry Lewis - Vocalion and Victor Recordings 1927-1929  In Chro
DTITLE=nological Order
DYEAR=1990
DGENRE=Blues
TTITLE0=Everybody's Blues
TTITLE1=Mr. Furry's Blues
TTITLE2=Sweet Papa Moan
TTITLE3=Rock Island Blues
TTITLE4=Jelly Roll
TTITLE5=Billy Lyons And Stock O'Lee
TTITLE6=Good Looking Girl Blues
TTITLE7=Why Don't You Come Home Blues
TTITLE8=Falling Down Blues
TTITLE9=Big Chief Blues
TTITLE10=Mean Old Bedbug Blues
TTITLE11=Furry's Blues
TTITLE12=I Will Turn Your Money Green (take 1)
TTITLE13=I Will Turn Your Money Green (take 2)
TTITLE14=Mistreatin' Mama
TTITLE15=Dry Land Blues
TTITLE16=Cannon Ball Blues
TTITLE17=Kassie Jones - Part 1
TTITLE18=Kassie Jones - Part 2
TTITLE19=Judge Harsh Blues (take 1)
TTITLE20=Judge Harsh Blues (take 2)
TTITLE21=John Henry (The Steel Driving Man) - 1
TTITLE22=John Henry (The Steel Driving Man) - 2
TTITLE23=Black Gypsy Blues
TTITLE24=Creeper's Blues
EXTD=Submitted 2/2/98\nJmccoy@efn.org
EXTT0=
EXTT1=
EXTT2=
EXTT3=
EXTT4=
EXTT5=
EXTT6=
EXTT7=
EXTT8=
EXTT9=
EXTT10=
EXTT11=
EXTT12=
EXTT13=
EXTT14=
EXTT15=
EXTT16=
EXTT17=
EXTT18=
EXTT19=
EXTT20=
EXTT21=
EXTT22=
EXTT23=
EXTT24=
PLAYORDER=
